# xmcd CD database file
#
# Track frame offsets:
#	150
#	22571
#	45269
#	66478
#	85567
#	104074
#	125832
#	145360
#	166171
#	188435
#	211008
#	235912
#	257395
#	282249
#	306142
#	328927
#
# Disc length: 4621 seconds
#
# Revision: 0
# Processed by: cddbd v1.4PL0 Copyright (c) Steve Scherf et al.
# Submitted via: CDex 1.40Beta8
#
DISCID=d5120b10
DTITLE=Johnnie Taylor - Unknown
DYEAR=2003
DGENRE=Blues
TTITLE0=If You're Lookin' For A Fool
TTITLE1=This Is The Night For Makin' Up
TTITLE2=Crazy Bout' You Baby
TTITLE3=Take Me To The Mardi Gras
TTITLE4=Too Wise To Be Your Fool
TTITLE5=Baby Sittin'
TTITLE6=You Know It Ain't Right
TTITLE7=I'm In A Midnight Mood
TTITLE8=If You Take Your Love Away
TTITLE9=I Found All These Things
TTITLE10=Please Sign The Dotted Line
TTITLE11=Where Is Your Woman Tonight
TTITLE12=Con Lover
TTITLE13=Is This Love Or Is This Business
TTITLE14=I Reach For You
TTITLE15=The Second Time Around
EXTD=YEAR: 2003 ID3G: 0
EXTT0=
EXTT1=
EXTT2=
EXTT3=
EXTT4=
EXTT5=
EXTT6=
EXTT7=
EXTT8=
EXTT9=
EXTT10=
EXTT11=
EXTT12=
EXTT13=
EXTT14=
EXTT15=
PLAYORDER=
